<?xml version="1.0" standalone="no"?>
<!DOCTYPE svg PUBLIC "-//W3C//DTD SVG 20010904//EN"
 "http://www.w3.org/TR/2001/REC-SVG-20010904/DTD/svg10.dtd">
<svg version="1.0" xmlns="http://www.w3.org/2000/svg"
 width="260.000000pt" height="260.000000pt" viewBox="0 0 260.000000 260.000000"
 preserveAspectRatio="xMidYMid meet">
<metadata>
Created by potrace 1.11, written by Peter Selinger 2001-2013
</metadata>
<g transform="translate(0.000000,260.000000) scale(0.100000,-0.100000)"
fill="#000000" stroke="none">
<path d="M742 2248 c-220 -19 -401 -141 -501 -336 -34 -67 -61 -164 -61 -220
0 -30 -5 -83 -12 -119 -10 -54 -9 -68 4 -97 l16 -33 138 -6 c75 -3 179 -4 230
0 l93 6 51 78 c66 103 85 105 122 17 14 -35 31 -82 38 -105 7 -24 16 -43 19
-43 4 0 17 -31 30 -70 13 -38 34 -79 47 -91 l24 -22 0 26 c0 14 4 36 9 49 6
13 20 57 32 98 12 41 44 141 70 221 27 80 49 158 49 173 0 38 46 37 63 -1 6
-16 15 -30 19 -33 4 -3 19 -37 33 -75 14 -39 30 -79 35 -90 4 -11 16 -46 26
-77 9 -32 23 -63 30 -69 8 -6 14 -17 14 -24 0 -24 40 -106 49 -101 5 3 52 82
106 176 69 122 102 170 115 170 18 0 62 -62 96 -135 37 -80 22 -76 299 -78
233 -2 248 -1 261 18 17 23 20 241 3 294 -62 199 -95 257 -207 363 -104 98
-245 148 -416 148 -78 0 -89 -3 -175 -45 -97 -47 -172 -110 -223 -182 -16 -24
-32 -43 -36 -43 -4 0 -20 21 -36 46 -69 109 -171 173 -336 212 -19 4 -72 4
-118 0z"/>
<path d="M1161 1618 c-12 -34 -27 -81 -65 -208 -38 -128 -64 -206 -77 -232 -5
-10 -9 -32 -9 -49 0 -41 -16 -69 -40 -69 -14 0 -28 20 -53 73 -46 97 -85 195
-93 235 -4 18 -11 35 -15 38 -5 3 -9 13 -9 23 0 10 -10 26 -21 37 -21 18 -22
18 -33 0 -6 -10 -23 -36 -39 -57 l-27 -39 -108 0 c-59 -1 -186 -1 -282 0 -195
0 -223 -6 -228 -54 -5 -40 19 -53 115 -61 52 -4 83 -11 83 -18 0 -16 194 -201
228 -218 15 -7 59 -35 99 -61 40 -27 76 -48 81 -48 4 0 17 -8 28 -18 10 -10
35 -26 54 -35 72 -37 249 -182 325 -266 16 -19 36 -40 43 -47 6 -7 12 -15 12
-19 0 -3 13 -20 29 -38 17 -17 37 -48 47 -69 20 -45 28 -47 50 -11 41 67 67
102 114 155 l50 56 -11 109 c-14 136 -9 175 30 259 58 124 142 202 267 250 65
25 76 26 184 20 102 -6 123 -10 187 -40 l71 -34 36 40 c34 38 37 39 83 33 27
-4 69 -15 95 -26 30 -12 57 -17 77 -13 38 8 81 56 81 90 0 29 -22 75 -44 93
-24 20 -85 16 -117 -8 -28 -21 -38 -22 -320 -21 -204 0 -296 3 -305 11 -8 6
-23 30 -33 53 -18 40 -60 96 -73 96 -4 0 -33 -46 -66 -102 -133 -230 -147
-250 -175 -246 -14 2 -27 23 -47 78 -15 41 -33 89 -40 105 -7 17 -12 37 -11
47 1 9 -3 19 -9 23 -5 3 -10 15 -10 25 0 10 -6 23 -13 27 -7 4 -24 41 -37 81
-25 74 -44 90 -59 50z"/>
<path d="M1764 1185 c-100 -32 -194 -102 -239 -179 -32 -55 -65 -161 -65 -205
1 -52 24 -142 51 -197 33 -66 110 -139 188 -176 61 -30 74 -32 171 -32 96 0
110 3 164 30 119 58 197 155 231 289 19 70 19 90 0 160 -41 160 -148 271 -299
311 -62 17 -147 16 -202 -1z m233 -116 c114 -64 165 -140 171 -254 9 -176
-107 -307 -286 -322 -59 -5 -80 -2 -126 17 -68 27 -156 117 -174 177 -20 67
-15 176 10 231 39 82 122 149 213 173 48 13 152 1 192 -22z"/>
<path d="M1851 1038 c-5 -13 -17 -69 -26 -126 -8 -56 -18 -109 -21 -117 -7
-18 39 -65 64 -65 10 0 29 11 42 25 20 22 22 30 16 82 -16 138 -37 223 -56
223 -6 0 -15 -10 -19 -22z"/>
</g>
</svg>
